<?xml version="1.0" encoding="UTF-8"?>
<svg width="1200pt" height="1200pt" version="1.1" viewBox="0 0 1200 1200" xmlns="http://www.w3.org/2000/svg">
 <path d="m72 400.68v398.64c0 25.461 10.113 49.879 28.117 67.883 18.004 18.004 42.422 28.117 67.883 28.117h603.12c24.02-0.074218 47.145-9.1523 64.801-25.441l243.12 243.12 33.961-33.961-250.56-251.04c3.0234-9.4648 4.5625-19.344 4.5586-29.281v-50.16l228 94.801c7.3906 2.9883 15.781 2.1133 22.395-2.3359 6.6172-4.4492 10.59-11.891 10.605-19.863v-442.32c0.015625-8.0352-3.9883-15.547-10.672-20.008-6.6797-4.4609-15.152-5.2852-22.566-2.1914l-228 94.801v-50.762c0-25.461-10.117-49.879-28.121-67.883-18-18.004-42.418-28.117-67.879-28.117h-432l-217.8-217.68-33.961 33.961 183.72 183.72h-102.72c-25.461 0-49.879 10.113-67.883 28.117-18.004 18.004-28.117 42.422-28.117 67.883zm699.24-48c12.73 0 24.941 5.0586 33.941 14.059 9.0039 9.0039 14.059 21.211 14.059 33.941v86.762c0.050781 7.9062 3.9922 15.285 10.539 19.723s14.859 5.3633 22.223 2.4766l228-94.801v370.32l-228-94.801c-7.4141-3.0938-15.887-2.2695-22.57 2.1914-6.6797 4.4648-10.688 11.973-10.668 20.008v72l-432-432zm30.84 483.12c-8.5312 7.5273-19.461 11.781-30.84 12h-603.24c-12.73 0-24.938-5.0586-33.941-14.059-9-9.0039-14.059-21.211-14.059-33.941v-399.12c0-12.73 5.0586-24.938 14.059-33.941 9.0039-9 21.211-14.059 33.941-14.059h150.72z" fill="#ef4d23"/>
</svg>
